<?xml version="1.0" encoding="utf-8"?>
<!-- Generator: Adobe Illustrator 25.0.1, SVG Export Plug-In . SVG Version: 6.00 Build 0)  -->
<svg version="1.1" id="Layer_1" xmlns="http://www.w3.org/2000/svg" xmlns:xlink="http://www.w3.org/1999/xlink" x="0px" y="0px"
	 viewBox="0 0 357.68 187.8" style="enable-background:new 0 0 357.68 187.8;" xml:space="preserve">
<style type="text/css">
	.st0{fill:#FFFFFF;}
	.st1{fill:none;stroke:#FFFFFF;stroke-miterlimit:10;}
	.st2{fill:#606060;}
	.st3{clip-path:url(#SVGID_2_);}
	.st4{fill:none;stroke:#FFFFFF;stroke-width:2;stroke-miterlimit:10;}
	.st5{clip-path:url(#SVGID_4_);}
	.st6{fill:none;stroke:#FFFFFF;stroke-width:0.0536;stroke-miterlimit:10;}
	.st7{fill:none;stroke:#FFFFFF;stroke-width:0.1072;stroke-miterlimit:10;}
	.st8{fill:none;stroke:#FFFFFF;stroke-width:0.1607;stroke-miterlimit:10;}
	.st9{fill:none;stroke:#FFFFFF;stroke-width:0.2143;stroke-miterlimit:10;}
	.st10{fill:none;stroke:#FFFFFF;stroke-width:0.2679;stroke-miterlimit:10;}
	.st11{fill:none;stroke:#FFFFFF;stroke-width:0.3215;stroke-miterlimit:10;}
	.st12{fill:none;stroke:#FFFFFF;stroke-width:0.3751;stroke-miterlimit:10;}
	.st13{fill:none;stroke:#FFFFFF;stroke-width:0.4286;stroke-miterlimit:10;}
	.st14{fill:none;stroke:#FFFFFF;stroke-width:0.4822;stroke-miterlimit:10;}
	.st15{fill:none;stroke:#FFFFFF;stroke-width:0.5358;stroke-miterlimit:10;}
	.st16{fill:none;stroke:#FFFFFF;stroke-width:0.5894;stroke-miterlimit:10;}
	.st17{clip-path:url(#SVGID_6_);}
	.st18{fill:none;stroke:#FFFFFF;stroke-width:0.0677;stroke-miterlimit:10;}
	.st19{fill:none;stroke:#FFFFFF;stroke-width:0.1354;stroke-miterlimit:10;}
	.st20{fill:none;stroke:#FFFFFF;stroke-width:0.2031;stroke-miterlimit:10;}
	.st21{fill:none;stroke:#FFFFFF;stroke-width:0.2708;stroke-miterlimit:10;}
	.st22{fill:none;stroke:#FFFFFF;stroke-width:0.3385;stroke-miterlimit:10;}
	.st23{fill:none;stroke:#FFFFFF;stroke-width:0.4062;stroke-miterlimit:10;}
	.st24{fill:none;stroke:#FFFFFF;stroke-width:0.4739;stroke-miterlimit:10;}
	.st25{fill:none;stroke:#FFFFFF;stroke-width:0.5416;stroke-miterlimit:10;}
	.st26{fill:none;stroke:#FFFFFF;stroke-width:0.6093;stroke-miterlimit:10;}
	.st27{fill:none;stroke:#FFFFFF;stroke-width:0.677;stroke-miterlimit:10;}
	.st28{fill:none;stroke:#FFFFFF;stroke-width:0.7447;stroke-miterlimit:10;}
</style>
<g>
	<defs>
		<rect id="SVGID_5_" width="357.68" height="187.8"/>
	</defs>
	<clipPath id="SVGID_2_">
		<use xlink:href="#SVGID_5_"  style="overflow:visible;"/>
	</clipPath>
	<g class="st3">
		<g>
			<g>
				<path class="st0" d="M286.85,340.14c-64.41,35.45-127.32,86.04-203.47,91.04c-19.63,1.29-39.42-0.47-58.56-4.96
					c-5.63-1.32-10.95-2.95-16.74-3.29c-6.13-0.36-12.28-0.1-18.41,0.13c-12.08,0.47-25.04,1.98-36.97-0.62
					c-4.27-0.93-8.55-2.64-9.9-7.2c-1.41-4.76,0.4-10.19,2.07-14.63c4.51-11.99,11.8-22.7,16.84-34.45
					c2.01-4.68,3.16-9.14,3.63-14.19c0.92-9.98,2.52-19.9,4.6-29.7c8.6-40.47,24.88-78.95,41.36-116.73
					c15.9-36.44,31.58-73.2,51.92-107.44c9.22-15.52,19.11-31.04,31.95-43.85c13.38-13.34,29.86-22.81,48.04-27.91
					c33.8-9.48,69.12-4.47,102.66,3.45c38.3,9.04,76.4,21.43,115.81,24.67c39.65,3.26,78.77-2.96,117.5-10.89
					c31.47-6.44,63.35-12.21,95.45-14.19c16.48-1.02,33.95-1.5,50,3.02c8.05,2.27,15.98,6.23,20.65,13.43
					c3.26,5.02,4.53,10.87,5.85,16.62c7.67,33.51,6.51,68.55-7.73,100.2c-13.58,30.18-37.05,54.71-63.46,74.15
					c-29.97,22.06-63.92,38.4-98.57,51.67c-34.39,13.17-69.87,23.33-105.68,31.83c-24.65,5.85-49.54,10.53-74.3,15.86
					C296.68,337.16,291.17,337.84,286.85,340.14c-1.06,0.56-0.12,2.17,0.94,1.61c4.92-2.61,11.44-3.25,16.81-4.38
					c11.08-2.33,22.19-4.49,33.28-6.8c33.39-6.95,66.6-14.89,99.21-24.93c36.76-11.32,73.01-25.16,106.75-43.74
					c30.73-16.92,60.05-38.16,81.66-66.11c19.28-24.92,30.93-54.75,32.23-86.33c0.67-16.25-1.35-32.39-4.97-48.21
					c-0.67-2.93-1.32-5.88-2.29-8.73c-6.61-19.57-28-23.99-46.4-25.19c-23.99-1.57-48.3,1.38-71.99,4.88
					c-39.91,5.91-79.04,16.65-119.3,20.06c-19.84,1.68-39.89,1.82-59.69-0.52c-20.47-2.42-40.67-7.2-60.64-12.18
					c-35.73-8.92-71.71-20.26-108.88-20.27c-17.21,0-34.56,2.4-50.72,8.48c-16.89,6.36-31.69,16.77-43.75,30.16
					C76.91,71.47,67.23,87.27,58.19,103c-10.33,17.98-19.46,36.62-28.07,55.48C12.87,196.28-4.43,234.44-18.1,273.7
					c-6.6,18.95-12.22,38.32-15.7,58.1c-0.74,4.22-1.38,8.47-1.91,12.72c-0.52,4.14-0.56,8.43-1.43,12.52
					c-1.21,5.66-3.92,11-6.53,16.12c-5.51,10.85-13.03,21.92-15.37,34.05c-0.74,3.86-0.84,8.14,1.41,11.54
					c2.06,3.11,5.72,4.52,9.22,5.35c11.96,2.85,25.05,1.35,37.2,0.86c6.18-0.25,12.39-0.51,18.58-0.21
					c6.65,0.33,12.83,2.35,19.3,3.79c37.99,8.45,76.79,5.3,113.4-7.57c35.44-12.46,67.86-31.95,99.9-51.24
					c15.82-9.53,31.63-19.09,47.82-27.99C288.84,341.17,287.9,339.56,286.85,340.14z"/>
			</g>
		</g>
		<g>
			<path class="st18" d="M81.08,89.31c10.1-14.72,21.93-29.99,39.74-40.73c34.36-20.74,76.94-17.63,110.57-10.16
				c34.32,7.62,66.56,18.08,102.11,23.79c35.57,5.72,74.73,2.59,115.41-5.77c157.63-32.41,160.87-3.04,165.78,17.7
				c12.39,52.24-1.27,93.64-28.3,126.83c-27.17,33.37-67.97,58.56-111.16,77.4c-37.08,16.24-75.79,28.02-108.79,36.42
				c-43.72,11.13-77.14,16.55-82.85,19.88c-33.81,19.67-67.56,42.1-102.59,59.3c-21.87,10.74-44.31,19.15-67.85,22.99
				c-28.79,4.74-56.21,1.8-80.06-5.03c-15.56-4.47-58.27,4.07-67.02-6.29C-44.21,393.46-17.4,362-16.39,345.59
				c3.07-49.83,26.06-101.4,46.28-153.17C43.79,156.81,58.28,122.54,81.08,89.31z"/>
			<g>
				<path class="st0" d="M81.88,89.78c9.05-13.16,19.05-25.87,32-35.44c12.97-9.58,28.18-15.56,43.99-18.44
					c31.84-5.79,63.72,0.73,94.59,8.5c34.05,8.57,68.23,19.06,103.47,21.18c35.77,2.15,70.62-3.9,105.56-10.72
					c27.67-5.4,55.7-10.17,83.9-11.59c14.72-0.74,30.32-0.96,44.58,3.33c7.15,2.15,14.11,5.82,18.28,12.23
					c3,4.6,4.21,9.95,5.45,15.22c6.92,29.56,6.34,60.34-5.28,88.65c-11.29,27.51-31.52,50.38-54.55,68.77
					c-25.55,20.4-54.8,35.83-84.81,48.55c-32.31,13.7-65.88,24.33-99.83,33.1c-16.24,4.19-32.6,7.95-48.98,11.53
					c-10.4,2.27-20.93,4.25-31.2,7.1c-2.93,0.81-5.41,1.81-8.03,3.34c-7.72,4.51-15.37,9.13-23.02,13.77
					c-15.57,9.45-31.08,18.99-46.91,28c-31.07,17.69-63.8,33.81-99.46,39.41c-18.39,2.89-37.24,2.74-55.61-0.18
					c-12.2-1.94-23.78-6.3-36.2-6.48c-11.5-0.16-23,0.87-34.51,0.41c-7.95-0.32-20.49-0.82-20.68-11.37
					c-0.09-5.02,1.9-10.08,3.83-14.63c2.27-5.34,4.97-10.49,7.58-15.68c2.37-4.73,4.76-9.49,6.55-14.48
					c1.97-5.51,2.03-11.01,2.64-16.79c3.76-35.74,16.32-70.03,29.29-103.3c13.04-33.45,25.49-67.45,41.48-99.63
					C63.65,118.79,72.21,103.93,81.88,89.78c0.68-0.99-0.93-1.92-1.61-0.94c-20.18,29.53-34.94,62.04-48.08,95.19
					C18.29,219.09,3.26,254.05-7.13,290.37c-4.74,16.56-8.4,33.5-9.86,50.69c-0.51,6.02-1.5,11.06-3.91,16.64
					c-2.39,5.5-5.21,10.81-7.88,16.17c-3.93,7.9-10.06,18.4-8.12,27.63c1.77,8.4,11.51,9.63,18.65,10.18
					c11.7,0.9,23.46-0.18,35.17-0.22c4.97-0.02,10.12-0.02,14.98,1.13c7.89,1.87,15.62,4.02,23.66,5.29
					c35.78,5.7,71.34-0.03,104.73-13.57c34.01-13.8,65.31-33.57,96.58-52.57c7.99-4.86,16-9.69,24.06-14.43
					c3.03-1.78,5.69-2.97,9.07-3.89c10.91-2.98,22.09-5.07,33.13-7.5c67.49-14.81,136.04-33.6,196.14-68.69
					c26.95-15.73,52.39-35.22,71.4-60.2c17.18-22.58,27.88-49.39,29.36-77.83c0.93-17.76-1.06-36.6-6.59-53.6
					c-1.96-6.03-5.37-11.24-10.55-14.99c-8.42-6.08-19.41-7.97-29.52-8.91c-20.9-1.94-42.21,0.31-62.92,3.08
					c-15.76,2.11-31.44,4.8-47.05,7.81c-19.23,3.71-38.33,7.7-57.83,9.74c-17.6,1.84-35.38,2.46-53.05,1.14
					c-18.58-1.38-36.91-5.24-55-9.57c-59.86-14.31-133.65-42.56-188.21,1.62c-11.54,9.35-20.67,21.13-29.04,33.3
					C79.59,89.83,81.21,90.76,81.88,89.78z"/>
			</g>
		</g>
		<g>
			<path class="st19" d="M90.33,96.14c9.68-13.33,20.65-27.27,37.16-36.94c31.81-18.67,71.02-15.46,102.18-8.32
				c31.14,7.14,60.46,16.66,92.73,22.02c32.29,5.39,67.83,2.94,104.68-4.4c142.33-28.35,145.58-1.83,150.25,17.38
				c11.52,47.35-0.92,84.9-24.87,115.34c-24.26,30.82-60.55,54.57-99.34,72.44c-33.29,15.47-68.14,27-98.03,35.18
				c-39.44,10.79-69.72,16.16-75.21,19.55c-30.58,18.89-61.85,39.19-94.14,54.98c-20.15,9.86-40.84,17.45-62.52,20.76
				c-26.4,4.13-51.57,1.2-73.53-5.33c-14.35-4.3-53.14,3.05-61.35-6.64C-21.3,380.79,2.42,352,3.02,336.74
				c1.81-46.05,23.16-93.39,39.55-141.68C54.59,159.66,67.62,127.39,90.33,96.14z"/>
			<g>
				<path class="st0" d="M91.13,96.61c8.48-11.65,17.58-23.03,29.27-31.63c12.08-8.89,26.3-14.37,41.03-16.92
					c29.08-5.04,58.12,0.99,86.27,8.19c31.01,7.93,62.13,17.58,94.22,19.89c16.25,1.17,32.6,0.6,48.8-1.1
					c16.85-1.77,33.37-5.12,50-8.22c24.83-4.62,50-8.68,75.28-9.62c13.12-0.48,27.06-0.47,39.66,3.71
					c6.5,2.15,12.58,5.8,16.15,11.81c3.28,5.53,4.48,12.41,5.78,18.61c5.75,27.44,3.51,55.93-8.48,81.44
					c-11.62,24.73-30.75,45.24-52.14,61.9c-24.17,18.83-51.59,33.09-79.71,45.03c-29.23,12.41-59.51,22.24-90.2,30.35
					c-14.01,3.7-28.1,7.04-42.2,10.37c-7.77,1.83-15.99,3.26-23.44,6.22c-5.04,2.01-9.65,5.68-14.24,8.54
					c-6.94,4.32-13.87,8.65-20.84,12.93c-14.27,8.78-28.66,17.38-43.4,25.35c-29.05,15.69-59.88,28.94-93.2,31.27
					c-16.16,1.13-32.46-0.22-48.25-3.79c-5.38-1.22-10.67-3.21-16.14-3.94c-4.62-0.62-9.32-0.64-13.98-0.61
					c-10.61,0.06-21.51,0.99-32.05-0.63c-3.42-0.53-7.61-1.31-10.08-3.96c-2.98-3.19-2.5-8.08-1.58-11.99
					c2.4-10.18,8.09-19.39,12.2-28.93c1.74-4.03,3.46-8.25,3.97-12.64c0.85-7.26,1-14.54,2.1-21.79
					c4.89-32.18,16.64-62.89,27.69-93.34c10.81-29.78,20.1-60.18,34.44-88.54C74.75,121.32,82.44,108.62,91.13,96.61
					c0.7-0.97-0.91-1.9-1.61-0.94c-18.28,25.26-31.43,53.44-42.06,82.65c-5.74,15.77-11.06,31.7-16.79,47.48
					c-5.84,16.09-11.72,32.18-16.7,48.56c-4.68,15.37-8.57,31.03-10.58,46.99c-0.47,3.75-0.84,7.52-1.08,11.3
					c-0.18,2.79-0.19,5.53-0.86,8.25c-1.21,4.94-3.4,9.63-5.55,14.22c-4.16,8.89-9.91,18.4-10.73,28.38
					c-0.28,3.39,0.32,7.05,2.75,9.6c2.36,2.47,5.94,3.5,9.19,4.14c10.24,2.02,21.02,1.16,31.39,1.03
					c5.06-0.06,10.15-0.13,15.19,0.39c5.89,0.61,11.54,2.77,17.31,4.07c31.68,7.15,64.15,4.72,94.8-5.79
					c31.77-10.9,61.08-28.57,89.59-46.05c7.29-4.47,14.54-8.99,21.8-13.51c3.44-2.15,6.89-4.29,10.34-6.43
					c1.59-0.98,3.08-2,4.82-2.67c8.07-3.12,16.95-4.63,25.34-6.61c61.04-14.39,122.53-31.73,177.2-63.32
					c46.7-26.99,91.32-68.35,97.07-124.95c1.84-18.09-0.12-37.07-5.48-54.47c-1.72-5.6-4.66-10.58-9.34-14.21
					c-7.38-5.71-17.13-7.67-26.18-8.69c-18.77-2.11-38.01-0.27-56.67,2.04c-14.39,1.79-28.72,4.13-42.98,6.77
					c-17.57,3.25-35.01,6.83-52.82,8.58c-16.16,1.59-32.46,2.02-48.66,0.71c-16.93-1.37-33.62-4.97-50.09-8.96
					c-55-13.33-122.72-39.7-173.19,0.45c-10.63,8.46-19.08,19.14-27.03,30.07C88.82,96.64,90.43,97.57,91.13,96.61z"/>
			</g>
		</g>
		<g>
			<path class="st20" d="M99.57,102.97c9.24-11.94,19.36-24.55,34.57-33.15c29.26-16.6,65.1-13.31,93.78-6.47
				c27.97,6.66,54.36,15.23,83.34,20.25c29.02,5.05,60.93,3.29,93.95-3.02c127.02-24.28,130.29-0.62,134.73,17.07
				c10.64,42.47-0.56,76.17-21.45,103.84c-21.35,28.28-53.17,50.49-87.51,67.47c-29.54,14.61-60.48,25.98-87.28,33.94
				c-35.15,10.44-62.3,15.75-67.57,19.22c-27.38,18.02-56.14,36.27-85.68,50.66c-18.44,8.99-37.38,15.68-57.2,18.53
				c-24.02,3.45-46.93,0.6-66.99-5.63c-13.14-4.13-48.01,2.03-55.68-7c-8.98-10.57,11.66-36.68,11.85-50.8
				c0.56-42.25,20.05-85.56,32.83-130.2C65.37,162.39,76.92,132.24,99.57,102.97z"/>
			<g>
				<path class="st0" d="M100.23,103.63c7.92-10.22,16.18-20.35,26.7-28.04c10.99-8.03,23.89-12.96,37.26-15.25
					c26.81-4.6,53.56,1.15,79.45,7.92c28.18,7.37,56.48,16.23,85.66,18.53c14.76,1.17,29.62,0.78,44.34-0.66
					c15.11-1.48,29.93-4.41,44.87-7.05c22.34-3.95,45.01-7.4,67.73-7.89c11.64-0.25,24.08-0.02,35.14,4.1
					c5.73,2.13,10.84,5.67,13.82,11.11c3.62,6.61,4.98,15.44,6.18,22.61c4.17,24.92,0.42,50.24-11.33,72.64
					s-29.85,41.01-49.86,56.21c-22.23,16.9-47.14,29.88-72.7,40.94c-26.73,11.56-54.34,20.76-82.41,28.43
					c-11.37,3.11-22.81,5.93-34.19,8.99c-3.54,0.95-7.08,1.9-10.55,3.08c-3.01,1.03-5.32,2.44-8,4.2
					c-25.25,16.56-50.87,32.72-77.89,46.27c-26.87,13.47-55.72,22.86-86.08,22.04c-14.3-0.39-28.15-3.06-41.85-7.02
					c-8.02-2.32-16.91-1.68-25.17-1.68c-4.94,0-9.9,0-14.84-0.36c-3.92-0.29-8.09-0.71-11.74-2.28c-8.15-3.53-5.4-13.38-3.04-19.91
					c3.22-8.96,8.16-17.34,10.66-26.55c1.35-4.98,1.01-10.15,1.39-15.25c0.52-7.01,1.51-13.98,2.82-20.89
					c5.48-28.92,16.1-56.57,24.93-84.56c4.23-13.41,7.84-27.01,12.43-40.31c4.3-12.49,9.3-24.75,15.37-36.5
					c6.01-11.63,13.07-22.67,21.06-33.04c0.73-0.95-0.89-1.88-1.61-0.94c-16.62,21.57-28.46,45.95-37.19,71.66
					c-4.65,13.71-8.36,27.72-12.77,41.51c-4.64,14.54-9.64,28.96-14.16,43.55c-4.34,14.04-8.26,28.25-10.69,42.76
					c-1.13,6.76-1.94,13.59-2.29,20.43c-0.26,5.09-0.43,9.51-2.11,14.36c-3.21,9.27-8.28,17.85-10.95,27.31
					c-1.83,6.5-2.22,14.45,4.82,17.81c7.51,3.58,17.15,3.05,25.24,3.07c8.77,0.03,18.39-0.91,26.94,1.5
					c13.42,3.78,26.81,6.58,40.8,7.14c14.86,0.59,29.72-1.13,44.12-4.81c29.22-7.48,56.14-22.51,81.85-37.88
					c13.55-8.1,26.84-16.61,40.04-25.26c3.01-1.97,5.55-3.62,8.93-4.74c3.68-1.23,7.44-2.22,11.18-3.21
					c25.94-6.89,51.92-13.42,77.28-22.26c27.78-9.69,55.21-21.21,80.75-35.86c42.67-24.47,85.34-61.92,93.08-113.16
					c2.72-18.02,0.92-36.58-4.14-54.04c-1.47-5.09-3.86-9.83-7.93-13.34c-6.35-5.48-15.02-7.57-23.13-8.68
					c-16.38-2.22-33.26-0.89-49.61,0.92c-12.72,1.4-25.38,3.32-37.98,5.51c-15.74,2.73-31.33,5.93-47.25,7.49
					c-15.04,1.47-30.21,1.84-45.28,0.58c-15.36-1.28-30.49-4.56-45.43-8.23c-27.39-6.72-54.53-16.17-82.71-18.99
					c-26.28-2.63-54.13,1-75.65,17.42c-10.01,7.63-17.98,17.36-25.64,27.26C98.19,103.25,99.5,104.58,100.23,103.63z"/>
			</g>
		</g>
		<g>
			<path class="st21" d="M108.82,109.8c8.76-10.57,18.08-21.82,31.98-29.35c26.71-14.53,59.17-11.15,85.39-4.63
				c24.79,6.17,48.27,13.8,73.96,18.48c25.74,4.72,54.02,3.64,83.21-1.65c111.7-20.23,115,0.58,119.2,16.75
				c9.75,37.58-0.2,67.46-18.03,92.35c-18.45,25.75-45.77,46.48-75.68,62.5c-25.76,13.8-52.81,24.95-76.52,32.7
				c-30.86,10.09-54.87,15.34-59.93,18.9c-24.23,17.05-50.43,33.35-77.23,46.34c-16.72,8.11-33.91,13.96-51.87,16.3
				c-21.63,2.82-42.3,0.05-60.45-5.93c-11.95-3.93-42.87,1.02-50.01-7.35c-8.33-9.77,9.23-33.19,9-46.18
				c-0.67-38.45,16.68-77.88,26.1-118.71C76.11,164.98,86.18,137.1,108.82,109.8z"/>
			<g>
				<path class="st0" d="M109.48,110.46c7.37-8.88,14.89-17.8,24.35-24.55c9.81-7,21.25-11.31,33.1-13.31
					c23.97-4.06,47.92,1.06,71.03,7.23c25.38,6.77,50.82,14.93,77.08,17.47c13.32,1.29,26.76,1.17,40.09,0.06
					c13.49-1.13,26.73-3.6,40.07-5.83c19.97-3.33,40.25-6.2,60.53-6.31c10.26-0.05,21.33,0.33,30.94,4.35
					c5.07,2.12,9.35,5.53,11.85,10.49c0.99,1.97,1.67,4.08,2.26,6.2c1.85,6.68,3.3,13.48,4.05,20.38
					c2.42,22.32-2.71,44.31-13.97,63.66c-11.65,20.02-28.4,36.77-46.83,50.61c-20.35,15.27-43.04,27.17-66.23,37.5
					c-23.56,10.49-47.88,18.71-72.63,25.89c-8.75,2.54-17.61,4.83-26.24,7.75c-2.13,0.72-4.36,1.45-6.32,2.58
					c-4.99,2.87-9.61,6.64-14.4,9.85c-22.22,14.88-45.42,28.98-69.89,39.89c-24.61,10.98-51.29,16.56-78.22,13.33
					c-6.5-0.78-12.95-2.04-19.28-3.74c-4.24-1.14-8.34-2.76-12.71-3.36c-8.35-1.15-16.86-0.72-25.27-1.1
					c-4.12-0.19-8.3-0.46-12.33-1.43c-2.83-0.68-5.93-1.73-7.57-4.3c-1.98-3.09-1.53-7.14-0.78-10.54
					c0.93-4.27,2.54-8.38,4.15-12.44c3.01-7.6,6.5-15.07,6.47-23.38c-0.06-12.9,1.88-25.73,4.66-38.3
					c5.74-25.94,14.92-50.97,21.02-76.82c5.24-22.17,11.4-44.13,22.33-64.27C96.09,128.24,102.39,119.04,109.48,110.46
					c0.76-0.92-0.55-2.24-1.32-1.32c-14.53,17.59-25.16,37.6-32.39,59.21c-3.76,11.26-6.57,22.76-9.33,34.3
					c-3.22,13.48-7.24,26.75-11.16,40.04c-7.39,25.02-14.22,50.07-14.37,76.33c-0.05,8.5-4.79,16.82-7.72,24.6
					c-2.33,6.19-5.91,15.24-1.66,21.4c3.65,5.3,12.11,5.71,17.87,6.13c8.87,0.64,17.8,0.15,26.66,1.05
					c4.41,0.45,8.42,1.92,12.67,3.11c6.37,1.78,12.86,3.11,19.41,3.99c12.89,1.72,25.96,1.58,38.8-0.42
					c27.01-4.21,51.69-16.53,75.23-29.9c11.83-6.73,23.4-13.91,34.74-21.44c7.45-4.95,14.32-10.98,22.87-13.84
					c9-3.01,18.21-5.39,27.32-8.05c12.31-3.59,24.59-7.34,36.67-11.65c25.22-8.99,49.99-19.91,73.23-33.23
					c20.87-11.95,40.61-26.43,56.79-44.32c14.47-16.01,26.26-35,31.04-56.23c4.08-18.12,2.64-36.75-2.32-54.54
					c-1.3-4.66-3.23-9.1-6.77-12.5c-5.3-5.1-12.79-7.28-19.87-8.46c-14.34-2.38-29.23-1.44-43.62-0.07
					c-11.45,1.09-22.84,2.68-34.19,4.52c-14.31,2.32-28.5,5.11-42.98,6.32c-13.33,1.11-26.77,1.23-40.09-0.06
					c-13.82-1.34-27.43-4.43-40.87-7.82c-24.6-6.21-48.97-14.81-74.31-17.5c-23.9-2.53-49.24,0.67-68.85,15.57
					c-8.76,6.65-15.86,15.04-22.85,23.46C107.4,110.06,108.71,111.38,109.48,110.46z"/>
			</g>
		</g>
		<g>
			<path class="st22" d="M118.07,116.64c8.25-9.21,16.8-19.1,29.39-25.56c24.15-12.47,53.25-9,77-2.79
				c21.62,5.66,42.17,12.37,64.57,16.71c22.46,4.39,47.11,3.98,72.48-0.28c96.38-16.18,99.71,1.78,103.67,16.43
				c8.84,32.7,0.17,58.77-14.61,80.85c-15.55,23.24-38.37,42.47-63.85,57.54c-21.99,13.01-45.14,23.91-65.77,31.46
				c-26.56,9.72-47.45,14.91-52.28,18.57c-21.12,15.97-44.72,30.43-68.77,42.02c-15.01,7.23-30.44,12.23-46.54,14.07
				c-19.24,2.19-37.67-0.54-53.91-6.23c-10.74-3.76-37.74,0-44.34-7.7c-7.68-8.97,6.81-29.71,6.16-41.56
				c-1.89-34.65,13.03-70.36,19.38-107.23C86.76,167.45,95.37,141.95,118.07,116.64z"/>
			<g>
				<path class="st0" d="M118.73,117.29c6.93-7.74,13.89-15.61,22.56-21.47c8.97-6.07,19.35-9.69,30.03-11.25
					c21.48-3.14,42.78,1.74,63.38,7.44c22.63,6.26,45.35,13.63,68.8,16.05c11.63,1.2,23.37,1.23,35.03,0.38
					c11.97-0.88,23.73-3.02,35.58-4.79c17.32-2.59,34.95-4.79,52.49-4.34c8.59,0.22,17.99,0.88,25.8,4.83
					c4.32,2.18,7.66,5.51,9.59,9.97c0.79,1.83,1.35,3.76,1.87,5.68c2.26,8.29,3.77,16.73,3.94,25.35
					c0.81,41.52-28.96,76.43-60.62,99.78c-18.25,13.46-38.51,24.34-59.07,33.82c-20,9.22-40.78,16.12-61.69,22.92
					c-5.65,1.84-11.82,3.41-17.03,6.35c-3.85,2.17-7.31,5.32-10.92,7.88c-4.76,3.38-9.59,6.65-14.49,9.82
					c-9.85,6.38-19.97,12.34-30.33,17.86c-10.54,5.61-21.27,10.93-32.59,14.79c-22.33,7.62-46.14,9.29-69.15,3.77
					c-4.71-1.13-9.22-2.91-13.9-4.09c-3.16-0.8-6.47-1.07-9.71-1.28c-7.76-0.52-15.67-0.32-23.35-1.72
					c-2.88-0.52-6.18-1.25-8.45-3.22c-2.46-2.13-2.89-5.52-2.66-8.59c0.57-7.84,4.33-15.26,6.59-22.7c0.98-3.22,1.85-6.58,1.78-9.97
					c-0.1-5.4-0.21-10.73,0.19-16.12c0.85-11.43,3.06-22.72,5.67-33.86c2.69-11.52,5.82-22.93,8.61-34.43
					c2.7-11.15,4.6-22.41,6.86-33.64c3.69-18.31,9.09-36.35,18.56-52.56C106.83,131.83,112.47,124.3,118.73,117.29
					c0.8-0.89-0.52-2.21-1.32-1.32c-12.63,14.14-22.23,30.35-28.39,48.3c-7.04,20.54-9.44,42.23-14.61,63.25
					c-5.59,22.77-12.64,45.53-14.03,69.07c-0.15,2.62-0.23,5.25-0.22,7.88c0.01,2.49,0.29,5,0.15,7.49
					c-0.21,3.77-1.44,7.47-2.63,11.02c-2.41,7.18-6.25,15.03-5.73,22.78c0.43,6.4,4.97,9.4,10.78,10.72
					c7.52,1.71,15.41,1.58,23.08,1.98c3.66,0.19,7.38,0.39,10.97,1.19c4.71,1.05,9.23,2.94,13.93,4.09
					c11.13,2.74,22.65,3.96,34.11,3.49c23.98-0.97,46.04-9.65,67.06-20.64c10.62-5.56,21-11.59,31.1-18.04
					c5.13-3.28,10.2-6.68,15.18-10.19c2.27-1.59,4.52-3.21,6.75-4.85c1.72-1.26,3.37-2.71,5.21-3.79
					c5.39-3.15,11.96-4.71,17.85-6.62c10.35-3.35,20.7-6.69,30.94-10.38c22.01-7.94,43.26-17.99,63.55-29.63
					c18.99-10.89,36.93-23.76,52.05-39.68c13.51-14.21,25.17-31.01,31.06-49.87c5.58-17.87,4.95-36.43,0.03-54.37
					c-1.15-4.18-2.62-8.26-5.53-11.56c-4.21-4.78-10.54-7.1-16.62-8.4c-12.27-2.61-25.23-2.05-37.65-1.12
					c-9.8,0.73-19.57,1.93-29.29,3.34c-12.67,1.83-25.22,4.22-38,5.16c-11.9,0.87-23.89,0.82-35.76-0.46
					c-12.05-1.3-23.91-4.07-35.62-7.1c-22.1-5.71-43.94-13.64-66.7-16.36c-21.29-2.54-43.96-0.14-61.77,12.72
					c-8.05,5.81-14.66,13.23-21.25,20.58C116.61,116.87,117.93,118.19,118.73,117.29z"/>
			</g>
		</g>
		<g>
			<path class="st23" d="M127.32,123.47c7.71-7.87,15.52-16.38,26.8-21.77c21.6-10.4,47.32-6.86,68.6-0.94
				c18.45,5.13,36.07,10.94,55.19,14.94c19.19,4.06,40.19,4.33,61.75,1.1c81.03-12.15,84.41,2.99,88.14,16.12
				c7.9,27.82,0.55,50.1-11.18,69.35c-12.65,20.77-30.98,38.47-52.02,52.57c-18.22,12.21-37.45,22.86-55.02,30.21
				c-22.25,9.32-40.02,14.47-44.64,18.24c-18.08,14.77-39,27.51-60.32,37.71c-13.29,6.36-26.97,10.51-41.22,11.84
				c-16.85,1.57-33.03-1.13-47.37-6.53c-9.54-3.59-32.61-1.01-38.67-8.05c-7.03-8.17,4.39-26.22,3.31-36.93
				c-3.09-30.83,9.05-62.96,12.66-95.74C97.27,169.8,104.49,146.78,127.32,123.47z"/>
			<g>
				<path class="st0" d="M127.98,124.13c6.35-6.5,12.64-13.16,20.33-18.11c8.08-5.2,17.39-8.23,26.9-9.39
					c18.93-2.31,37.53,2.17,55.59,7.4c19.6,5.67,39.28,12.17,59.6,14.68c10.23,1.26,20.57,1.51,30.86,0.93
					c10.57-0.6,20.96-2.4,31.45-3.72c14.46-1.83,29.21-3.32,43.8-2.41c7.21,0.45,15.15,1.39,21.42,5.3c3.53,2.2,5.97,5.43,7.41,9.3
					c4.07,10.9,5.58,23.05,4.5,34.6c-1.59,17.1-9.32,32.91-19.07,46.8c-10.71,15.25-24.31,28.38-39.3,39.39
					c-16.33,12-34.19,22.36-52.52,30.99c-8.99,4.23-18.24,7.87-27.53,11.37c-6.84,2.58-13.78,4.97-20.52,7.84
					c-1.93,0.83-3.92,1.67-5.67,2.85c-3.57,2.4-6.82,5.39-10.28,7.96c-8.11,6-16.55,11.55-25.23,16.68
					c-17.4,10.29-35.82,19.92-55.83,23.82c-10.1,1.97-20.46,2.46-30.69,1.41c-5.14-0.53-10.23-1.45-15.24-2.72
					c-4.27-1.08-8.35-2.63-12.54-3.96c-5.94-1.89-12.54-1.84-18.69-2.36c-3.47-0.29-6.95-0.61-10.36-1.33
					c-2.57-0.54-5.39-1.27-7.47-2.97c-5.06-4.16-2.52-12.66-1.1-17.92c1.75-6.44,4.35-13.06,3.74-19.84
					c-1.82-20.14,2.52-40.14,6.58-59.76c2.1-10.13,4.17-20.28,5.54-30.54c1.18-8.84,2.06-17.7,3.76-26.47
					c2.87-14.78,7.68-29.09,15.91-41.78C117.57,135.65,122.56,129.68,127.98,124.13c0.84-0.86-0.48-2.18-1.32-1.32
					c-10.85,11.12-19.54,23.93-24.98,38.53c-2.73,7.33-4.67,14.94-6.14,22.62c-1.77,9.25-2.61,18.6-3.93,27.92
					c-2.92,20.6-8.61,40.71-11.17,61.36c-0.62,5-1.04,10.02-1.16,15.06c-0.11,4.73,0.41,9.38,0.53,14.09
					c0.2,7.19-3.13,14.3-4.7,21.21c-1.2,5.3-2.17,12.34,2.58,16.26c4.44,3.66,11.33,4.05,16.81,4.56c6.55,0.62,13.45,0.5,19.82,2.3
					c4.42,1.25,8.67,3.01,13.15,4.14c4.75,1.21,9.59,2.09,14.46,2.65c20.44,2.35,40.88-1.73,59.58-10.06
					c18.96-8.45,37.16-19.27,53.86-31.58c3.6-2.65,6.97-5.67,10.63-8.22c1.78-1.24,3.85-2.11,5.83-2.96
					c7.13-3.03,14.49-5.53,21.73-8.28c19.16-7.28,37.54-15.85,55.14-26.39c31.8-19.05,62.38-44.14,76.93-79.29
					c6.98-16.87,8.16-35.16,3.43-52.8c-1.11-4.12-2.25-8.39-4.83-11.87c-3.28-4.41-8.33-6.86-13.52-8.3
					c-10.1-2.79-21.03-2.64-31.4-2.16c-8.49,0.39-16.96,1.23-25.39,2.28c-10.89,1.35-21.7,3.25-32.68,3.87
					c-10.5,0.59-21.06,0.33-31.49-1.01c-10.54-1.35-20.91-3.93-31.16-6.7c-19.39-5.24-38.52-12.37-58.52-14.96
					c-18.59-2.4-38.34-0.56-54.18,10.28c-7.19,4.92-13.19,11.23-19.25,17.43C125.82,123.67,127.14,124.98,127.98,124.13z"/>
			</g>
		</g>
		<g>
			<path class="st24" d="M136.57,130.3c7.12-6.56,14.24-13.64,24.22-17.98c19.07-8.3,41.39-4.74,60.21,0.9
				c15.29,4.58,29.98,9.52,45.8,13.17c15.91,3.72,33.27,4.68,51.02,2.47c65.66-8.15,69.11,4.19,72.61,15.8
				c6.93,22.95,0.95,41.49-7.76,57.86c-9.76,18.35-23.58,34.47-40.19,47.61c-14.45,11.43-29.75,21.78-44.26,28.97
				c-17.93,8.89-32.61,14.01-37,17.92c-15.11,13.46-33.29,24.59-51.86,33.39c-11.58,5.48-23.5,8.79-35.89,9.6
				c-14.46,0.95-28.4-1.73-40.83-6.82c-8.34-3.42-27.48-2.03-33-8.41c-6.37-7.37,1.98-22.73,0.47-32.31
				c-4.26-27.01,4.74-55.65,5.93-84.26C107.53,172.05,113.52,151.55,136.57,130.3z"/>
			<g>
				<path class="st0" d="M137.22,130.96c5.66-5.22,11.24-10.61,17.86-14.62c7.09-4.3,15.13-6.73,23.35-7.59
					c16.65-1.73,32.9,2.47,48.67,7.31c16.86,5.17,33.84,10.98,51.36,13.46c8.55,1.21,17.21,1.66,25.84,1.35
					c8.99-0.32,17.88-1.7,26.82-2.53c11.81-1.1,23.94-1.93,35.75-0.44c5.61,0.71,11.85,1.99,16.33,5.69c2.84,2.35,4.44,5.5,5.56,8.9
					c4.11,12.52,4.91,25.63,1.62,38.44c-3.74,14.52-11.62,28.11-20.57,40.02c-9.96,13.24-22.11,24.28-35.33,34.17
					c-13.9,10.4-28.54,19.47-44.28,26.81c-6.6,3.08-13.3,5.91-19.91,8.96c-2.27,1.05-4.55,2.12-6.72,3.38
					c-2.13,1.24-3.86,2.86-5.72,4.46c-12.88,10.99-27.36,20.05-42.44,27.69c-7.71,3.91-15.58,7.4-23.95,9.66
					c-8.49,2.29-17.28,3.4-26.07,3.18c-8.44-0.22-16.83-1.66-24.88-4.19c-3.37-1.06-6.6-2.62-10-3.54c-2.56-0.69-5.2-1.05-7.82-1.39
					c-5.73-0.75-11.67-1.09-17.18-2.93c-2.24-0.75-4.52-1.84-5.83-3.9c-1.49-2.33-1.66-5.22-1.5-7.91
					c0.37-6.25,2.51-12.25,2.97-18.49c0.26-3.61-0.57-7.14-0.88-10.72c-0.36-4.24-0.44-8.51-0.33-12.76
					c0.49-17.82,4.25-35.33,6.1-53.02c0.84-8.07,0.98-16.18,1.65-24.27c0.56-6.7,1.41-13.39,2.86-19.96
					c2.53-11.43,7.1-22.16,14.13-31.55C128.4,139.66,132.68,135.16,137.22,130.96c0.88-0.82-0.44-2.13-1.32-1.32
					c-9.11,8.43-16.96,18.18-21.92,29.62c-5.05,11.65-7.11,24.28-8.16,36.86c-0.71,8.45-0.86,16.93-1.77,25.37
					c-1.01,9.31-2.5,18.55-3.76,27.83c-1.17,8.69-2.16,17.44-2.27,26.22c-0.05,4.42,0.13,8.86,0.63,13.25
					c0.39,3.39,0.86,6.51,0.43,9.93c-0.81,6.36-3.12,12.68-2.8,19.16c0.12,2.52,0.73,5.03,2.28,7.06c1.4,1.83,3.44,2.93,5.56,3.73
					c5.52,2.09,11.66,2.43,17.46,3.16c2.82,0.35,5.67,0.73,8.42,1.47c3.4,0.92,6.63,2.48,10,3.54c16.5,5.18,34.17,5.61,50.92,1.29
					c8.56-2.21,16.61-5.7,24.49-9.65c7.64-3.83,15.09-8.03,22.29-12.63c7.2-4.61,14.14-9.64,20.68-15.15
					c2.04-1.72,3.92-3.55,6.24-4.89c2.24-1.3,4.59-2.39,6.94-3.47c6.83-3.14,13.75-6.06,20.55-9.26
					c7.93-3.72,15.63-7.81,23.07-12.44c7.74-4.82,15.21-10.07,22.46-15.59c6.7-5.1,13.18-10.43,19.15-16.37
					c11.29-11.22,20.91-24.18,28.08-38.4c6.82-13.53,10.87-28.32,9.03-43.56c-0.61-5.08-1.79-10.07-3.41-14.92
					c-0.58-1.74-1.26-3.47-2.19-5.05c-2.34-3.98-6.14-6.57-10.39-8.19c-7.87-2.99-16.79-3.28-25.11-3.25
					c-7.07,0.03-14.15,0.48-21.19,1.13c-9.11,0.83-18.16,2.26-27.32,2.58c-8.99,0.32-18.03-0.15-26.93-1.52
					c-8.99-1.38-17.83-3.72-26.56-6.22c-30.85-8.8-67.61-25.23-97.9-5.78c-6.23,4-11.59,9.14-17.01,14.15
					C135.02,130.46,136.34,131.77,137.22,130.96z"/>
			</g>
		</g>
		<g>
			<path class="st25" d="M145.81,137.13c6.49-5.3,12.96-10.91,21.63-14.18c16.51-6.23,35.46-2.64,51.81,2.75
				c12.12,3.99,23.89,8.06,36.42,11.4c12.64,3.36,26.32,5.01,40.29,3.84c50.23-4.21,53.79,5.39,57.08,15.49
				c5.91,18.08,1.4,32.95-4.34,46.36c-6.85,16-16.19,30.5-28.36,42.64c-10.69,10.66-22.04,20.66-33.51,27.73
				c-13.6,8.39-25.22,13.52-29.36,17.59c-12.23,12.03-27.58,21.68-43.41,29.07c-9.86,4.6-20.03,7.08-30.56,7.37
				c-12.06,0.34-23.76-2.33-34.29-7.12c-7.13-3.25-22.35-3.05-27.33-8.76c-5.72-6.57-0.42-19.24-2.38-27.69
				c-5.38-23.19,0.08-48.37-0.79-72.77C117.41,174.26,122.43,156.22,145.81,137.13z"/>
			<g>
				<path class="st0" d="M146.47,137.79c5.07-4.14,10.09-8.38,15.88-11.49c6.18-3.33,13.06-5.09,20.04-5.56
					c14.16-0.96,27.86,2.94,41.15,7.35c13.97,4.64,28.04,9.69,42.57,12.27c7.16,1.27,14.43,1.94,21.7,1.88
					c7.19-0.06,14.36-0.94,21.54-1.22c9.11-0.36,18.63-0.52,27.56,1.63c4.31,1.04,8.7,2.77,11.57,6.3
					c2.63,3.23,3.86,7.86,4.86,11.91c1.65,6.68,1.97,13.64,0.97,20.45c-0.9,6.09-2.77,11.99-5.04,17.7
					c-4.93,12.37-11.49,24.18-19.73,34.66c-4.22,5.36-8.91,10.25-13.81,14.99c-5.27,5.09-10.72,10-16.46,14.57
					c-5.67,4.51-11.65,8.49-17.9,12.14c-5.46,3.2-11.07,6.14-16.56,9.29c-1.95,1.12-3.9,2.26-5.72,3.59
					c-1.84,1.34-3.4,2.99-5.07,4.53c-5.07,4.67-10.54,8.89-16.27,12.73c-5.73,3.84-11.71,7.31-17.85,10.45
					c-6.43,3.28-12.99,6.2-20,8.01c-14.02,3.61-28.83,2.93-42.54-1.66c-3.05-1.02-5.93-2.41-8.93-3.54
					c-2.14-0.81-4.4-1.29-6.63-1.73c-4.91-0.98-10.02-1.58-14.7-3.44c-1.89-0.75-3.77-1.79-4.98-3.47
					c-1.53-2.12-1.96-4.81-2.04-7.36c-0.17-5.55,1.19-11.06,0.74-16.61c-0.25-3.06-1.16-6.06-1.62-9.1
					c-0.56-3.73-0.88-7.49-1.04-11.26c-0.31-7.38-0.01-14.76,0.4-22.13c0.41-7.46,0.95-14.91,1.12-22.38
					c0.16-6.82-0.23-13.63-0.23-20.45c0.01-10.13,0.61-20.43,3.5-30.2c2.51-8.48,6.91-16.15,12.8-22.73
					C139.03,144.23,142.67,140.9,146.47,137.79c0.93-0.76-0.4-2.07-1.32-1.32c-7.51,6.15-14.4,13.23-19.1,21.8
					c-4.48,8.16-6.7,17.24-7.69,26.44c-1.37,12.65-0.21,25.31-0.58,37.99c-0.45,15.13-2.28,30.25-1.36,45.4
					c0.22,3.69,0.62,7.38,1.24,11.03c0.54,3.14,1.39,6.15,1.38,9.37c-0.03,5.6-1.38,11.23-0.6,16.83c0.34,2.42,1.16,4.78,2.8,6.64
					c1.36,1.54,3.23,2.54,5.11,3.3c4.76,1.93,9.97,2.55,14.97,3.54c2.28,0.45,4.58,0.94,6.75,1.78c3.09,1.19,6.07,2.6,9.23,3.64
					c6.82,2.25,13.96,3.57,21.14,3.87c7.23,0.3,14.51-0.47,21.52-2.23c7.04-1.77,13.64-4.65,20.1-7.91
					c12.56-6.34,24.55-14.06,34.96-23.58c1.78-1.63,3.42-3.41,5.4-4.81c1.89-1.33,3.9-2.5,5.91-3.64
					c5.72-3.26,11.54-6.33,17.21-9.68c12.79-7.57,24.1-17.09,34.72-27.45c9.85-9.61,18.26-20.34,24.88-32.42
					c3.2-5.84,6.02-11.91,8.42-18.12c2.28-5.9,4.05-12,4.8-18.3c1.12-9.35-0.18-19.2-3.91-27.88c-1.5-3.49-3.9-6.34-7.21-8.25
					c-5.59-3.24-12.45-4.08-18.77-4.53c-5.43-0.39-10.88-0.36-16.31-0.16c-7.46,0.27-14.89,1.19-22.35,1.25
					c-7.57,0.06-15.13-0.66-22.57-2.06c-7.38-1.39-14.62-3.51-21.8-5.72c-26.09-8.03-56.35-22.31-82.79-7.5
					c-5.62,3.15-10.54,7.32-15.51,11.37C144.23,137.23,145.55,138.54,146.47,137.79z"/>
			</g>
		</g>
		<g>
			<path class="st26" d="M155.06,143.96c5.82-4.08,11.68-8.19,19.04-10.39c13.96-4.16,29.54-0.59,43.42,4.59
				c8.98,3.35,17.79,6.63,27.03,9.62c9.37,3.03,19.48,6.92,29.56,5.22c34.23-5.77,38.44,6.6,41.56,15.17
				c4.81,13.24,1.98,24.53-0.92,34.87c-3.86,13.79-8.78,26.55-16.54,37.67c-6.91,9.92-14.33,19.45-22.75,26.49
				c-9.3,7.78-17.87,13-21.71,17.26c-9.46,10.51-21.87,18.76-34.96,24.75c-8.14,3.73-16.55,5.38-25.23,5.14
				c-9.66-0.26-19.12-2.93-27.76-7.42c-5.93-3.08-17.22-4.06-21.66-9.11c-5.07-5.77-2.79-15.75-5.22-23.07
				c-6.45-19.38-4.92-41.04-7.52-61.29C126.66,176.55,131.19,160.69,155.06,143.96z"/>
			<g>
				<path class="st0" d="M155.53,144.77c4.44-3.11,8.91-6.23,13.88-8.46c5.3-2.38,11.05-3.51,16.85-3.62
					c11.7-0.22,22.91,3.35,33.75,7.39c11.45,4.26,22.97,8.56,34.72,11.92c5.67,1.62,11.62,2.79,17.53,2.18
					c2.84-0.29,5.64-0.87,8.48-1.19c2.41-0.27,4.83-0.46,7.26-0.52c6.26-0.16,13.14,0.35,18.56,3.82c3.28,2.11,5.47,5.27,6.96,8.82
					c3.32,7.89,4.52,16.25,3.3,24.75c-0.73,5.05-2.1,9.99-3.51,14.88c-1.58,5.44-3.36,10.83-5.5,16.08
					c-2.07,5.09-4.5,10.05-7.36,14.76c-2.93,4.83-6.31,9.42-9.76,13.89c-3.46,4.49-7.14,8.83-11.18,12.8
					c-4.16,4.09-8.8,7.66-13.47,11.15c-3.66,2.73-7.47,5.35-10.89,8.38c-1.56,1.38-2.9,2.97-4.35,4.45
					c-1.87,1.92-3.84,3.75-5.87,5.49c-8.35,7.14-18.06,13.11-28.2,17.37c-10.9,4.58-23.03,5.47-34.54,2.87
					c-5.66-1.28-10.95-3.41-16.14-5.98c-3.64-1.8-7.68-2.65-11.53-3.84c-3.77-1.16-8.17-2.55-10.47-6.01
					c-2.56-3.85-2.53-8.88-2.87-13.33c-0.17-2.23-0.37-4.48-0.89-6.67c-0.61-2.6-1.57-5.11-2.22-7.71
					c-1.4-5.64-2.25-11.4-2.84-17.18c-1.17-11.61-1.28-23.3-2.55-34.9c-1.03-9.41-2.28-18.76-1.97-28.25
					c0.22-6.96,1.27-14,4.09-20.41c2.69-6.13,6.87-11.37,11.79-15.87C149.39,149.29,152.41,146.96,155.53,144.77
					c0.97-0.68,0.04-2.3-0.94-1.61c-6.16,4.33-12.02,9.22-16.54,15.29c-4.02,5.41-6.66,11.67-7.97,18.27
					c-1.59,8.01-1.49,16.29-0.89,24.4c0.4,5.34,1.14,10.62,1.7,15.94c0.62,5.9,0.96,11.83,1.3,17.76
					c0.68,11.88,1.36,23.89,4.42,35.45c0.69,2.6,1.69,5.12,2.16,7.78c0.42,2.37,0.53,4.79,0.71,7.19c0.32,4.39,0.75,9.16,3.58,12.74
					c2.49,3.16,6.59,4.62,10.3,5.8c4.15,1.32,8.49,2.2,12.39,4.19c10.45,5.32,22.2,8.11,33.94,7.19
					c11.64-0.91,22.23-5.76,32.11-11.71c4.77-2.88,9.35-6.09,13.63-9.67c2.11-1.77,4.15-3.62,6.09-5.57c1.6-1.6,3.05-3.35,4.73-4.87
					c3.51-3.16,7.46-5.84,11.24-8.67c4.73-3.55,9.43-7.18,13.63-11.35c4.04-4,7.7-8.37,11.17-12.88c3.57-4.64,7.08-9.4,10.09-14.44
					c5.82-9.75,9.79-20.5,12.9-31.39c2.96-10.35,5.26-20.91,2.78-31.62c-1.06-4.57-2.77-9.73-5.59-13.57
					c-2.95-4.03-7.32-6.47-12.12-7.66c-8.65-2.14-17.82-0.98-26.5,0.37c-6.38,1-12.75-0.19-18.88-1.96
					c-5.93-1.71-11.8-3.73-17.63-5.75c-21.76-7.53-46.12-20.06-69.1-9.61c-4.88,2.22-9.3,5.3-13.68,8.37
					C153.62,143.84,154.55,145.46,155.53,144.77z"/>
			</g>
		</g>
		<g>
			<path class="st27" d="M164.31,150.8c5.13-2.93,10.39-5.48,16.45-6.6c11.4-2.11,23.65,1.34,35.03,6.43
				c5.86,2.62,11.69,5.21,17.65,7.85c6.09,2.7,12.27,5.58,18.83,6.59c18.99,2.92,23.04,7.82,26.03,14.85
				c3.59,8.43,2.83,16.23,2.51,23.37c-0.54,11.73-1.33,22.64-4.71,32.71c-3.09,9.21-6.73,18.08-12,25.25
				c-5.12,6.98-10.6,12.41-14.07,16.94c-6.82,8.9-16.16,15.84-26.5,20.43c-6.43,2.85-13.08,3.7-19.91,2.91
				c-7.26-0.84-14.47-3.54-21.22-7.72c-4.72-2.92-12.09-5.08-15.99-9.46c-4.42-4.97-5.13-12.28-8.07-18.45
				c-7.43-15.6-10.2-33.53-14.24-49.8C134.92,179.18,139.77,164.81,164.31,150.8z"/>
			<g>
				<path class="st0" d="M164.78,151.6c3.81-2.17,7.73-4.15,11.93-5.44c4.21-1.29,8.57-1.8,12.96-1.62
					c9.17,0.38,18.01,3.48,26.31,7.19c8.56,3.83,17.06,7.94,25.8,11.33c2.09,0.81,4.22,1.54,6.4,2.11c2.23,0.58,4.5,0.88,6.76,1.29
					c3.5,0.63,7,1.41,10.35,2.62c4.1,1.48,7.9,3.74,10.26,7.49c3.68,5.84,4.72,12.93,4.61,19.71c-0.13,8.77-0.6,17.71-1.91,26.39
					c-1.31,8.67-4.06,17.04-7.6,25.05c-1.74,3.94-3.74,7.78-6.15,11.36c-2.49,3.68-5.39,7.09-8.31,10.44
					c-2.36,2.71-4.77,5.37-6.97,8.21c-2.51,3.24-5.34,6.22-8.43,8.91c-6.24,5.43-13.87,10.28-21.83,12.7
					c-8.58,2.6-17.78,1.71-26.11-1.38c-4.12-1.53-7.72-3.79-11.56-5.85c-3.24-1.74-6.68-3.08-9.84-4.96
					c-3.31-1.97-5.66-4.56-7.28-8.06c-1.64-3.56-2.51-7.42-3.92-11.06c-1.54-3.98-3.46-7.78-4.9-11.8c-1.5-4.21-2.76-8.5-3.89-12.82
					c-2.21-8.43-3.91-16.97-5.95-25.44c-2.99-12.44-6.5-25.9-4.07-38.76c0.87-4.58,2.62-8.91,5.31-12.72
					c2.86-4.06,6.67-7.4,10.7-10.25C159.81,154.56,162.27,153.04,164.78,151.6c1.04-0.6,0.1-2.2-0.94-1.61
					c-9.09,5.21-17.98,11.82-22.14,21.78c-4.58,10.98-2.93,23.62-0.68,34.94c1.69,8.53,3.89,16.97,5.82,25.45
					c2.02,8.92,4.18,17.86,7.4,26.43c1.54,4.11,3.6,8.01,5.01,12.16c1.25,3.7,2.25,7.54,4.17,10.97c3.89,6.94,11.52,8.8,17.95,12.57
					c7.81,4.57,16.02,8,25.19,8.42c4.49,0.2,9.03-0.35,13.32-1.71c4.14-1.31,8.1-3.34,11.83-5.55c7.18-4.26,13.66-9.76,18.79-16.36
					c5.12-6.6,11.19-12.43,15.83-19.42c4.97-7.48,8.38-16.1,11.05-24.64c2.71-8.65,3.58-17.77,4.09-26.78
					c0.5-8.73,1.47-17.85-1.41-26.28c-1.42-4.15-3.49-8.13-7.01-10.86c-4.8-3.73-11.14-5.23-17-6.32c-2.32-0.43-4.66-0.72-6.95-1.29
					c-2.33-0.58-4.61-1.35-6.84-2.22c-4.64-1.8-9.15-3.93-13.7-5.95c-16.58-7.36-34.67-16.81-53.2-10.69
					c-4.04,1.33-7.85,3.27-11.54,5.37C162.8,150.59,163.74,152.19,164.78,151.6z"/>
			</g>
		</g>
		<path class="st28" d="M173.56,157.63c-25.37,10.64-31.88,25.1-16.77,61.11c7.55,18.01,19.07,37.99,31.88,52.14
			s26.9,22.48,39.58,17.15s21.11-17.44,24.48-32.72c3.37-15.29,1.67-33.74-5.88-51.75c-7.55-18.01-19.53-32.15-32.79-40.46
			S186.24,152.31,173.56,157.63z"/>
	</g>
</g>
</svg>
